<svg width="279" height="60" viewBox="0 0 279 60" fill="none" xmlns="http://www.w3.org/2000/svg">
<rect width="279" height="60" rx="30" fill="#103D24" fill-opacity="0.99"/>
<path d="M43.576 37.764V35.724H41.464V24.252H43.576V22.188H50.872V24.252H53.008V29.556H49.936V25.476H44.512V34.5H49.936V30.372H53.008V35.724H50.872V37.764H43.576ZM55.9249 37.764V28.356H58.0369V26.292H65.3329V28.356H67.4689V31.596H64.3969V29.556H58.9729V37.764H55.9249ZM72.0291 41.868V39.828H69.9171V36.564H72.9651V38.604H78.4131V35.724H72.0291V33.66H69.9171V26.292H72.9651V32.436H78.4131V26.292H81.4611V39.828H79.3491V41.868H72.0291ZM84.3781 41.748V28.356H86.4901V26.292H93.7861V28.356H95.9221V35.724H93.7861V37.764H87.4261V41.748H84.3781ZM87.4261 34.5H92.8501V29.556H87.4261V34.5ZM103.063 37.764V35.724H100.951V29.556H98.839V26.292H100.951V22.188H103.999V26.292H110.383V29.556H103.999V34.5H109.447V32.436H112.519V35.724H110.383V37.764H103.063ZM116.842 37.764V35.724H114.73V28.356H116.842V26.292H124.138V28.356H126.274V35.724H124.138V37.764H116.842ZM117.778 34.5H123.202V29.556H117.778V34.5ZM128.399 33.132V29.844H135.695V33.132H128.399ZM142.227 37.764V35.724H140.115V29.556H138.003V26.292H140.115V22.188H143.163V26.292H149.547V29.556H143.163V34.5H148.611V32.436H151.683V35.724H149.547V37.764H142.227ZM154.62 37.764V28.356H156.732V26.292H164.028V28.356H166.164V31.596H163.092V29.556H157.668V37.764H154.62ZM170.467 37.764V35.724H168.355V28.356H170.467V26.292H177.763V28.356H179.899V34.5H182.035V37.764H178.963V35.724H177.763V37.764H170.467ZM171.403 34.5H176.827V29.556H171.403V34.5ZM185.889 37.764V35.724H183.777V28.356H185.889V26.292H193.185V28.356H195.321V31.596H192.249V29.556H186.825V34.5H192.249V32.436H195.321V35.724H193.185V37.764H185.889ZM197.769 37.764V22.188H200.817V30.372H201.993V28.356H206.241V26.292H209.313V29.556H207.177V31.596H202.929V32.436H207.177V34.5H209.313V37.764H206.241V35.724H201.993V33.66H200.817V37.764H197.769ZM212.912 37.764V35.724H210.8V28.356H212.912V26.292H220.208V28.356H222.344V31.596H219.272V29.556H213.848V30.372H218.096V33.66H213.848V34.5H219.272V32.412H222.344V35.7H220.208V37.764H212.912ZM225.261 37.764V28.356H227.373V26.292H234.669V28.356H236.805V31.596H233.733V29.556H228.309V37.764H225.261Z" fill="#2DED80"/>
</svg>
